<svg width="175" height="61" viewBox="0 0 175 61" fill="none" xmlns="http://www.w3.org/2000/svg">
<path d="M26.4228 18.5791L20.6227 39.0553H18.3378L13.1821 21.5963L7.90927 39.0553L5.68296 39.0846L0 18.5791H2.19702L6.884 36.5361L12.1276 18.5791H14.4125L19.5095 36.5361L24.2258 18.5791H26.4228Z" fill="#2C0C4D"/>
<path d="M38.7577 39.2604C36.8634 39.2604 35.1449 38.821 33.6021 37.9422C32.0593 37.0438 30.8387 35.8037 29.9404 34.2219C29.0615 32.6205 28.6221 30.8141 28.6221 28.8026C28.6221 26.7911 29.0615 24.9944 29.9404 23.4125C30.8387 21.8112 32.0593 20.5711 33.6021 19.6923C35.1449 18.7939 36.8634 18.3447 38.7577 18.3447C40.6716 18.3447 42.3999 18.7939 43.9427 19.6923C45.4855 20.5711 46.6963 21.8112 47.5751 23.4125C48.4539 24.9944 48.8933 26.7911 48.8933 28.8026C48.8933 30.8141 48.4539 32.6205 47.5751 34.2219C46.6963 35.8037 45.4855 37.0438 43.9427 37.9422C42.3999 38.821 40.6716 39.2604 38.7577 39.2604ZM38.7577 37.4735C40.281 37.4735 41.648 37.1219 42.8588 36.4189C44.0696 35.7159 45.0266 34.7101 45.7296 33.4017C46.4327 32.0737 46.7842 30.5407 46.7842 28.8026C46.7842 27.0645 46.4327 25.5412 45.7296 24.2328C45.0266 22.9243 44.0696 21.9186 42.8588 21.2155C41.648 20.5125 40.281 20.1609 38.7577 20.1609C37.2345 20.1609 35.8674 20.5125 34.6566 21.2155C33.4458 21.9186 32.4889 22.9243 31.7859 24.2328C31.0828 25.5412 30.7313 27.0645 30.7313 28.8026C30.7313 30.5407 31.0828 32.0737 31.7859 33.4017C32.4889 34.7101 33.4458 35.7159 34.6566 36.4189C35.8674 37.1219 37.2345 37.4735 38.7577 37.4735Z" fill="#2C0C4D"/>
<path d="M63.5426 39.0553L58.4748 30.5016H54.696V39.0553H52.6454V18.5791H58.7971C61.082 18.5791 62.8103 19.1259 63.982 20.2195C65.1733 21.3132 65.769 22.7486 65.769 24.5257C65.769 26.0099 65.3393 27.2793 64.48 28.3339C63.6403 29.3689 62.3904 30.0427 60.7304 30.3551L66.0033 39.0553H63.5426ZM54.696 28.8319H58.8264C60.4277 28.8319 61.6288 28.4413 62.4295 27.6601C63.2497 26.879 63.6598 25.8341 63.6598 24.5257C63.6598 23.1782 63.2692 22.1432 62.4881 21.4206C61.7069 20.6785 60.4766 20.3074 58.7971 20.3074H54.696V28.8319Z" fill="#2C0C4D"/>
<path d="M80.7648 39.0553L71.8888 29.5935V39.0553H69.8382V18.5791H71.8888V28.1581L80.7648 18.5791H83.3719L73.7929 28.8026L83.4598 39.0553H80.7648Z" fill="#2C0C4D"/>
<path d="M175 30.4653C175 47.2909 161.36 60.9307 144.535 60.9307C127.709 60.9307 114.069 47.2909 114.069 30.4653C114.069 13.6398 127.709 0 144.535 0C161.36 0 175 13.6398 175 30.4653Z" fill="#EEBC00"/>
<path d="M116.706 18.4272L111.96 39.167H103.875L101.473 27.391L99.071 39.167H90.9859L86.2404 18.4272H93.2415L95.1163 31.4921L97.9285 18.4272H105.018L107.83 31.4921L109.705 18.4272H116.706Z" fill="#2C0C4D"/>
<path d="M125.541 18.4272V39.167H119.038V18.4272H125.541Z" fill="#2C0C4D"/>
<path d="M148.368 39.167H141.865L134.981 28.7385V39.167H128.478V18.4272H134.981L141.865 29.0314V18.4272H148.368V39.167Z" fill="#2C0C4D"/>
<path d="M164.02 25.5162C163.766 25.1061 163.405 24.7936 162.936 24.5788C162.467 24.3445 161.901 24.2273 161.237 24.2273C159.987 24.2273 159.02 24.6374 158.337 25.4576C157.653 26.2583 157.312 27.3617 157.312 28.7678C157.312 30.3887 157.693 31.5995 158.454 32.4002C159.216 33.2009 160.388 33.6012 161.969 33.6012C163.473 33.6012 164.684 32.9958 165.602 31.785H160.417V27.1859H170.992V33.6891C170.093 35.2319 168.853 36.5599 167.272 37.6731C165.69 38.7667 163.688 39.3135 161.266 39.3135C159.118 39.3135 157.243 38.8741 155.642 37.9953C154.06 37.0969 152.84 35.8471 151.98 34.2457C151.141 32.6443 150.721 30.8184 150.721 28.7678C150.721 26.7172 151.141 24.8913 151.98 23.2899C152.84 21.6885 154.06 20.4484 155.642 19.5696C157.224 18.6713 159.079 18.2221 161.208 18.2221C163.922 18.2221 166.129 18.8763 167.828 20.1848C169.547 21.4932 170.562 23.2704 170.875 25.5162H164.02Z" fill="#2C0C4D"/>
<path d="M54.7369 49.2625C54.2822 49.2625 53.8698 49.157 53.4995 48.9461C53.1292 48.7305 52.8363 48.4329 52.6207 48.0532C52.4098 47.6689 52.3043 47.2354 52.3043 46.7526C52.3043 46.2698 52.4098 45.8386 52.6207 45.459C52.8363 45.0747 53.1292 44.777 53.4995 44.5661C53.8698 44.3505 54.2822 44.2427 54.7369 44.2427C55.1962 44.2427 55.611 44.3505 55.9813 44.5661C56.3515 44.777 56.6421 45.0747 56.853 45.459C57.0639 45.8386 57.1694 46.2698 57.1694 46.7526C57.1694 47.2354 57.0639 47.6689 56.853 48.0532C56.6421 48.4329 56.3515 48.7305 55.9813 48.9461C55.611 49.157 55.1962 49.2625 54.7369 49.2625ZM54.7369 48.8336C55.1024 48.8336 55.4305 48.7492 55.7211 48.5805C56.0117 48.4118 56.2414 48.1704 56.4101 47.8564C56.5788 47.5377 56.6632 47.1697 56.6632 46.7526C56.6632 46.3355 56.5788 45.9699 56.4101 45.6558C56.2414 45.3418 56.0117 45.1004 55.7211 44.9317C55.4305 44.763 55.1024 44.6786 54.7369 44.6786C54.3713 44.6786 54.0432 44.763 53.7526 44.9317C53.462 45.1004 53.2323 45.3418 53.0636 45.6558C52.8949 45.9699 52.8105 46.3355 52.8105 46.7526C52.8105 47.1697 52.8949 47.5377 53.0636 47.8564C53.2323 48.1704 53.462 48.4118 53.7526 48.5805C54.0432 48.7492 54.3713 48.8336 54.7369 48.8336Z" fill="#2C0C4D"/>
<path d="M59.7994 45.3043C60.2587 45.3043 60.6337 45.4473 60.9243 45.7332C61.2149 46.0144 61.3602 46.4245 61.3602 46.9635V49.2133H60.8751V47.0197C60.8751 46.6026 60.7696 46.2839 60.5587 46.0636C60.3525 45.8433 60.0689 45.7332 59.708 45.7332C59.3377 45.7332 59.0425 45.8503 58.8222 46.0847C58.6019 46.319 58.4917 46.6635 58.4917 47.1182V49.2133H57.9996V45.3746H58.4917V46.0285C58.6136 45.7941 58.7894 45.616 59.019 45.4941C59.2487 45.3676 59.5088 45.3043 59.7994 45.3043Z" fill="#2C0C4D"/>
<path d="M64.7616 46.4011V46.8159H62.0267V46.4011H64.7616Z" fill="#2C0C4D"/>
<path d="M65.7287 47.2869C65.7287 46.8932 65.8083 46.5487 65.9677 46.2534C66.1271 45.9535 66.345 45.7238 66.6215 45.5644C66.9028 45.4004 67.2191 45.3184 67.5706 45.3184C67.9081 45.3184 68.2128 45.4004 68.4846 45.5644C68.7565 45.7285 68.9556 45.9417 69.0822 46.2042V44.0107H69.5743V49.2133H69.0822V48.3555C68.965 48.6227 68.7729 48.843 68.5057 49.0164C68.2385 49.1851 67.9245 49.2695 67.5636 49.2695C67.2121 49.2695 66.8957 49.1875 66.6145 49.0234C66.338 48.8594 66.12 48.6274 65.9607 48.3274C65.806 48.0275 65.7287 47.6806 65.7287 47.2869ZM69.0822 47.2939C69.0822 46.9846 69.0189 46.7128 68.8924 46.4784C68.7658 46.2441 68.5924 46.0636 68.3721 45.9371C68.1565 45.8105 67.9175 45.7472 67.655 45.7472C67.3832 45.7472 67.1394 45.8082 66.9238 45.93C66.7082 46.0519 66.5372 46.23 66.4106 46.4643C66.2888 46.694 66.2278 46.9682 66.2278 47.2869C66.2278 47.6009 66.2888 47.8775 66.4106 48.1165C66.5372 48.3509 66.7082 48.5313 66.9238 48.6579C67.1394 48.7797 67.3832 48.8406 67.655 48.8406C67.9175 48.8406 68.1565 48.7774 68.3721 48.6508C68.5924 48.5243 68.7658 48.3438 68.8924 48.1095C69.0189 47.8751 69.0822 47.6033 69.0822 47.2939Z" fill="#2C0C4D"/>
<path d="M74.1006 47.0971C74.1006 47.2658 74.0959 47.3947 74.0865 47.4838H70.9017C70.9158 47.7744 70.9861 48.0228 71.1126 48.229C71.2392 48.4352 71.4056 48.5922 71.6118 48.7C71.818 48.8031 72.043 48.8547 72.2867 48.8547C72.6054 48.8547 72.8726 48.7774 73.0882 48.6227C73.3085 48.468 73.4538 48.2595 73.5241 47.997H74.0443C73.9506 48.3719 73.7491 48.6789 73.4397 48.918C73.1351 49.1523 72.7507 49.2695 72.2867 49.2695C71.9258 49.2695 71.6024 49.1898 71.3165 49.0305C71.0306 48.8664 70.8056 48.6368 70.6416 48.3415C70.4822 48.0415 70.4025 47.6923 70.4025 47.2939C70.4025 46.8955 70.4822 46.5464 70.6416 46.2464C70.8009 45.9464 71.0236 45.7168 71.3095 45.5574C71.5954 45.3981 71.9211 45.3184 72.2867 45.3184C72.6523 45.3184 72.971 45.3981 73.2429 45.5574C73.5194 45.7168 73.7303 45.9324 73.8756 46.2042C74.0256 46.4714 74.1006 46.769 74.1006 47.0971ZM73.6014 47.083C73.6061 46.7971 73.5475 46.5534 73.4257 46.3519C73.3085 46.1503 73.1468 45.998 72.9405 45.8949C72.7343 45.7918 72.5093 45.7402 72.2656 45.7402C71.9 45.7402 71.5884 45.8574 71.3306 46.0917C71.0728 46.3261 70.9298 46.6565 70.9017 47.083H73.6014Z" fill="#2C0C4D"/>
<path d="M79.5005 45.3043C79.9504 45.3043 80.316 45.4473 80.5972 45.7332C80.8831 46.0144 81.0261 46.4245 81.0261 46.9635V49.2133H80.541V47.0197C80.541 46.6026 80.4402 46.2839 80.2387 46.0636C80.0371 45.8433 79.7629 45.7332 79.4161 45.7332C79.0552 45.7332 78.767 45.8527 78.5514 46.0917C78.3358 46.3308 78.228 46.6776 78.228 47.1322V49.2133H77.7429V47.0197C77.7429 46.6026 77.6421 46.2839 77.4405 46.0636C77.239 45.8433 76.9625 45.7332 76.6109 45.7332C76.2501 45.7332 75.9618 45.8527 75.7462 46.0917C75.5306 46.3308 75.4228 46.6776 75.4228 47.1322V49.2133H74.9307V45.3746H75.4228V46.0355C75.5447 45.7964 75.7181 45.616 75.943 45.4941C76.168 45.3676 76.4188 45.3043 76.6953 45.3043C77.0281 45.3043 77.3187 45.384 77.5671 45.5434C77.8202 45.7027 78.003 45.9371 78.1155 46.2464C78.2186 45.9417 78.3943 45.7097 78.6427 45.5504C78.8958 45.3863 79.1818 45.3043 79.5005 45.3043Z" fill="#2C0C4D"/>
<path d="M81.8238 47.2869C81.8238 46.8932 81.9011 46.5487 82.0558 46.2534C82.2151 45.9535 82.4331 45.7238 82.7096 45.5644C82.9908 45.4004 83.3072 45.3184 83.6587 45.3184C84.0243 45.3184 84.3383 45.4027 84.6008 45.5715C84.868 45.7402 85.0601 45.9558 85.1773 46.2183V45.3746H85.6694V49.2133H85.1773V48.3626C85.0554 48.625 84.8609 48.843 84.5938 49.0164C84.3313 49.1851 84.0173 49.2695 83.6517 49.2695C83.3048 49.2695 82.9908 49.1875 82.7096 49.0234C82.4331 48.8594 82.2151 48.6274 82.0558 48.3274C81.9011 48.0275 81.8238 47.6806 81.8238 47.2869ZM85.1773 47.2939C85.1773 46.9846 85.114 46.7128 84.9875 46.4784C84.8609 46.2441 84.6875 46.0636 84.4672 45.9371C84.2516 45.8105 84.0126 45.7472 83.7501 45.7472C83.4783 45.7472 83.2345 45.8082 83.0189 45.93C82.8033 46.0519 82.6323 46.23 82.5057 46.4643C82.3839 46.694 82.3229 46.9682 82.3229 47.2869C82.3229 47.6009 82.3839 47.8775 82.5057 48.1165C82.6323 48.3509 82.8033 48.5313 83.0189 48.6579C83.2345 48.7797 83.4783 48.8406 83.7501 48.8406C84.0126 48.8406 84.2516 48.7774 84.4672 48.6508C84.6875 48.5243 84.8609 48.3438 84.9875 48.1095C85.114 47.8751 85.1773 47.6033 85.1773 47.2939Z" fill="#2C0C4D"/>
<path d="M88.5224 45.3043C88.9817 45.3043 89.3567 45.4473 89.6473 45.7332C89.9379 46.0144 90.0832 46.4245 90.0832 46.9635V49.2133H89.5981V47.0197C89.5981 46.6026 89.4926 46.2839 89.2817 46.0636C89.0755 45.8433 88.7919 45.7332 88.431 45.7332C88.0607 45.7332 87.7655 45.8503 87.5452 46.0847C87.3249 46.319 87.2148 46.6635 87.2148 47.1182V49.2133H86.7226V45.3746H87.2148V46.0285C87.3366 45.7941 87.5124 45.616 87.742 45.4941C87.9717 45.3676 88.2318 45.3043 88.5224 45.3043Z" fill="#2C0C4D"/>
<path d="M90.8763 47.2869C90.8763 46.8932 90.956 46.5487 91.1153 46.2534C91.2747 45.9535 91.4926 45.7238 91.7692 45.5644C92.0504 45.4004 92.3668 45.3184 92.7183 45.3184C93.0558 45.3184 93.3604 45.4004 93.6323 45.5644C93.9041 45.7285 94.1033 45.9417 94.2298 46.2042V44.0107H94.722V49.2133H94.2298V48.3555C94.1127 48.6227 93.9205 48.843 93.6533 49.0164C93.3862 49.1851 93.0722 49.2695 92.7113 49.2695C92.3597 49.2695 92.0434 49.1875 91.7621 49.0234C91.4856 48.8594 91.2677 48.6274 91.1083 48.3274C90.9536 48.0275 90.8763 47.6806 90.8763 47.2869ZM94.2298 47.2939C94.2298 46.9846 94.1666 46.7128 94.04 46.4784C93.9135 46.2441 93.7401 46.0636 93.5198 45.9371C93.3042 45.8105 93.0651 45.7472 92.8027 45.7472C92.5308 45.7472 92.2871 45.8082 92.0715 45.93C91.8559 46.0519 91.6848 46.23 91.5583 46.4643C91.4364 46.694 91.3755 46.9682 91.3755 47.2869C91.3755 47.6009 91.4364 47.8775 91.5583 48.1165C91.6848 48.3509 91.8559 48.5313 92.0715 48.6579C92.2871 48.7797 92.5308 48.8406 92.8027 48.8406C93.0651 48.8406 93.3042 48.7774 93.5198 48.6508C93.7401 48.5243 93.9135 48.3438 94.04 48.1095C94.1666 47.8751 94.2298 47.6033 94.2298 47.2939Z" fill="#2C0C4D"/>
<path d="M98.1263 44.0107V49.2133H97.6341V44.0107H98.1263Z" fill="#2C0C4D"/>
<path d="M98.9454 47.2869C98.9454 46.8932 99.0228 46.5487 99.1774 46.2534C99.3368 45.9535 99.5547 45.7238 99.8313 45.5644C100.112 45.4004 100.429 45.3184 100.78 45.3184C101.146 45.3184 101.46 45.4027 101.722 45.5715C101.99 45.7402 102.182 45.9558 102.299 46.2183V45.3746H102.791V49.2133H102.299V48.3626C102.177 48.625 101.983 48.843 101.715 49.0164C101.453 49.1851 101.139 49.2695 100.773 49.2695C100.426 49.2695 100.112 49.1875 99.8313 49.0234C99.5547 48.8594 99.3368 48.6274 99.1774 48.3274C99.0228 48.0275 98.9454 47.6806 98.9454 47.2869ZM102.299 47.2939C102.299 46.9846 102.236 46.7128 102.109 46.4784C101.983 46.2441 101.809 46.0636 101.589 45.9371C101.373 45.8105 101.134 45.7472 100.872 45.7472C100.6 45.7472 100.356 45.8082 100.141 45.93C99.925 46.0519 99.7539 46.23 99.6274 46.4643C99.5055 46.694 99.4446 46.9682 99.4446 47.2869C99.4446 47.6009 99.5055 47.8775 99.6274 48.1165C99.7539 48.3509 99.925 48.5313 100.141 48.6579C100.356 48.7797 100.6 48.8406 100.872 48.8406C101.134 48.8406 101.373 48.7774 101.589 48.6508C101.809 48.5243 101.983 48.3438 102.109 48.1095C102.236 47.8751 102.299 47.6033 102.299 47.2939Z" fill="#2C0C4D"/>
<path d="M104.329 46.2253C104.456 45.9582 104.65 45.7402 104.913 45.5715C105.18 45.4027 105.494 45.3184 105.855 45.3184C106.207 45.3184 106.521 45.4004 106.797 45.5644C107.074 45.7238 107.289 45.9535 107.444 46.2534C107.603 46.5487 107.683 46.8932 107.683 47.2869C107.683 47.6806 107.603 48.0275 107.444 48.3274C107.289 48.6274 107.071 48.8594 106.79 49.0234C106.514 49.1875 106.202 49.2695 105.855 49.2695C105.489 49.2695 105.173 49.1875 104.906 49.0234C104.643 48.8547 104.451 48.6368 104.329 48.3696V49.2133H103.844V44.0107H104.329V46.2253ZM107.184 47.2869C107.184 46.9682 107.12 46.694 106.994 46.4643C106.872 46.23 106.703 46.0519 106.488 45.93C106.272 45.8082 106.028 45.7472 105.757 45.7472C105.494 45.7472 105.253 45.8105 105.032 45.9371C104.817 46.0636 104.646 46.2441 104.519 46.4784C104.393 46.7128 104.329 46.9846 104.329 47.2939C104.329 47.6033 104.393 47.8751 104.519 48.1095C104.646 48.3438 104.817 48.5243 105.032 48.6508C105.253 48.7774 105.494 48.8406 105.757 48.8406C106.028 48.8406 106.272 48.7797 106.488 48.6579C106.703 48.5313 106.872 48.3509 106.994 48.1165C107.12 47.8775 107.184 47.6009 107.184 47.2869Z" fill="#2C0C4D"/>
<path d="M110.198 49.2695C109.838 49.2695 109.512 49.1898 109.221 49.0305C108.935 48.8664 108.708 48.6368 108.539 48.3415C108.375 48.0415 108.293 47.6923 108.293 47.2939C108.293 46.8955 108.378 46.5487 108.546 46.2534C108.715 45.9535 108.945 45.7238 109.235 45.5644C109.526 45.4004 109.852 45.3184 110.213 45.3184C110.573 45.3184 110.899 45.4004 111.19 45.5644C111.485 45.7238 111.715 45.9535 111.879 46.2534C112.047 46.5487 112.132 46.8955 112.132 47.2939C112.132 47.6876 112.047 48.0345 111.879 48.3344C111.71 48.6344 111.478 48.8664 111.183 49.0305C110.887 49.1898 110.559 49.2695 110.198 49.2695ZM110.198 48.8406C110.452 48.8406 110.686 48.7844 110.901 48.6719C111.117 48.5547 111.291 48.3813 111.422 48.1517C111.558 47.9173 111.626 47.6314 111.626 47.2939C111.626 46.9565 111.56 46.6729 111.429 46.4433C111.298 46.2089 111.124 46.0355 110.909 45.923C110.693 45.8058 110.459 45.7472 110.205 45.7472C109.952 45.7472 109.718 45.8058 109.502 45.923C109.287 46.0355 109.113 46.2089 108.982 46.4433C108.856 46.6729 108.792 46.9565 108.792 47.2939C108.792 47.6314 108.856 47.9173 108.982 48.1517C109.113 48.3813 109.284 48.5547 109.495 48.6719C109.711 48.7844 109.945 48.8406 110.198 48.8406Z" fill="#2C0C4D"/>
<path d="M116.284 45.3746V49.2133H115.792V48.5383C115.679 48.7774 115.506 48.9602 115.272 49.0867C115.037 49.2133 114.775 49.2765 114.484 49.2765C114.025 49.2765 113.65 49.1359 113.359 48.8547C113.069 48.5688 112.923 48.1563 112.923 47.6173V45.3746H113.409V47.5611C113.409 47.9782 113.512 48.297 113.718 48.5172C113.929 48.7375 114.215 48.8477 114.576 48.8477C114.946 48.8477 115.241 48.7305 115.461 48.4962C115.682 48.2618 115.792 47.9173 115.792 47.4627V45.3746H116.284Z" fill="#2C0C4D"/>
<path d="M117.829 46.0566C117.937 45.8175 118.101 45.6324 118.322 45.5012C118.547 45.3699 118.821 45.3043 119.144 45.3043V45.8175H119.011C118.654 45.8175 118.368 45.9136 118.153 46.1058C117.937 46.298 117.829 46.619 117.829 47.069V49.2133H117.337V45.3746H117.829V46.0566Z" fill="#2C0C4D"/>
<path d="M126.243 45.3043C126.693 45.3043 127.058 45.4473 127.34 45.7332C127.626 46.0144 127.769 46.4245 127.769 46.9635V49.2133H127.283V47.0197C127.283 46.6026 127.183 46.2839 126.981 46.0636C126.78 45.8433 126.505 45.7332 126.159 45.7332C125.798 45.7332 125.509 45.8527 125.294 46.0917C125.078 46.3308 124.97 46.6776 124.97 47.1322V49.2133H124.485V47.0197C124.485 46.6026 124.385 46.2839 124.183 46.0636C123.981 45.8433 123.705 45.7332 123.353 45.7332C122.992 45.7332 122.704 45.8527 122.489 46.0917C122.273 46.3308 122.165 46.6776 122.165 47.1322V49.2133H121.673V45.3746H122.165V46.0355C122.287 45.7964 122.461 45.616 122.685 45.4941C122.91 45.3676 123.161 45.3043 123.438 45.3043C123.771 45.3043 124.061 45.384 124.31 45.5434C124.563 45.7027 124.745 45.9371 124.858 46.2464C124.961 45.9417 125.137 45.7097 125.385 45.5504C125.638 45.3863 125.924 45.3043 126.243 45.3043Z" fill="#2C0C4D"/>
<path d="M128.566 47.2869C128.566 46.8932 128.644 46.5487 128.798 46.2534C128.958 45.9535 129.175 45.7238 129.452 45.5644C129.733 45.4004 130.05 45.3184 130.401 45.3184C130.767 45.3184 131.081 45.4027 131.343 45.5715C131.61 45.7402 131.803 45.9558 131.92 46.2183V45.3746H132.412V49.2133H131.92V48.3626C131.798 48.625 131.603 48.843 131.336 49.0164C131.074 49.1851 130.76 49.2695 130.394 49.2695C130.047 49.2695 129.733 49.1875 129.452 49.0234C129.175 48.8594 128.958 48.6274 128.798 48.3274C128.644 48.0275 128.566 47.6806 128.566 47.2869ZM131.92 47.2939C131.92 46.9846 131.856 46.7128 131.73 46.4784C131.603 46.2441 131.43 46.0636 131.21 45.9371C130.994 45.8105 130.755 45.7472 130.493 45.7472C130.221 45.7472 129.977 45.8082 129.761 45.93C129.546 46.0519 129.375 46.23 129.248 46.4643C129.126 46.694 129.065 46.9682 129.065 47.2869C129.065 47.6009 129.126 47.8775 129.248 48.1165C129.375 48.3509 129.546 48.5313 129.761 48.6579C129.977 48.7797 130.221 48.8406 130.493 48.8406C130.755 48.8406 130.994 48.7774 131.21 48.6508C131.43 48.5243 131.603 48.3438 131.73 48.1095C131.856 47.8751 131.92 47.6033 131.92 47.2939Z" fill="#2C0C4D"/>
<path d="M133.957 46.0566C134.065 45.8175 134.229 45.6324 134.449 45.5012C134.674 45.3699 134.948 45.3043 135.272 45.3043V45.8175H135.138C134.782 45.8175 134.496 45.9136 134.281 46.1058C134.065 46.298 133.957 46.619 133.957 47.069V49.2133H133.465V45.3746H133.957V46.0566Z" fill="#2C0C4D"/>
<path d="M138.016 49.2133L136.434 47.4908V49.2133H135.942V44.0107H136.434V47.0901L137.981 45.3746H138.67L136.849 47.2869L138.684 49.2133H138.016Z" fill="#2C0C4D"/>
<path d="M142.723 47.0971C142.723 47.2658 142.718 47.3947 142.709 47.4838H139.524C139.538 47.7744 139.608 48.0228 139.735 48.229C139.861 48.4352 140.028 48.5922 140.234 48.7C140.44 48.8031 140.665 48.8547 140.909 48.8547C141.227 48.8547 141.495 48.7774 141.71 48.6227C141.93 48.468 142.076 48.2595 142.146 47.997H142.666C142.573 48.3719 142.371 48.6789 142.062 48.918C141.757 49.1523 141.373 49.2695 140.909 49.2695C140.548 49.2695 140.224 49.1898 139.939 49.0305C139.653 48.8664 139.428 48.6368 139.264 48.3415C139.104 48.0415 139.025 47.6923 139.025 47.2939C139.025 46.8955 139.104 46.5464 139.264 46.2464C139.423 45.9464 139.646 45.7168 139.931 45.5574C140.217 45.3981 140.543 45.3184 140.909 45.3184C141.274 45.3184 141.593 45.3981 141.865 45.5574C142.141 45.7168 142.352 45.9324 142.498 46.2042C142.648 46.4714 142.723 46.769 142.723 47.0971ZM142.223 47.083C142.228 46.7971 142.17 46.5534 142.048 46.3519C141.93 46.1503 141.769 45.998 141.563 45.8949C141.356 45.7918 141.131 45.7402 140.888 45.7402C140.522 45.7402 140.21 45.8574 139.953 46.0917C139.695 46.3261 139.552 46.6565 139.524 47.083H142.223Z" fill="#2C0C4D"/>
<path d="M144.192 45.7894V48.1727C144.192 48.4071 144.237 48.5688 144.326 48.6579C144.415 48.7469 144.572 48.7914 144.797 48.7914H145.247V49.2133H144.72C144.373 49.2133 144.115 49.1336 143.946 48.9742C143.778 48.8102 143.693 48.543 143.693 48.1727V45.7894H143.159V45.3746H143.693V44.4114H144.192V45.3746H145.247V45.7894H144.192Z" fill="#2C0C4D"/>
<path d="M146.473 46.2183C146.595 45.9605 146.787 45.7472 147.05 45.5785C147.317 45.4051 147.633 45.3184 147.999 45.3184C148.346 45.3184 148.658 45.4004 148.934 45.5644C149.215 45.7238 149.433 45.9535 149.588 46.2534C149.747 46.5487 149.827 46.8932 149.827 47.2869C149.827 47.6806 149.747 48.0275 149.588 48.3274C149.433 48.6274 149.215 48.8594 148.934 49.0234C148.658 49.1875 148.346 49.2695 147.999 49.2695C147.638 49.2695 147.324 49.1851 147.057 49.0164C146.79 48.843 146.595 48.6274 146.473 48.3696V51.0271H145.988V45.3746H146.473V46.2183ZM149.328 47.2869C149.328 46.9682 149.265 46.694 149.138 46.4643C149.016 46.23 148.847 46.0519 148.632 45.93C148.416 45.8082 148.172 45.7472 147.901 45.7472C147.638 45.7472 147.397 45.8105 147.176 45.9371C146.961 46.0636 146.79 46.2441 146.663 46.4784C146.537 46.7128 146.473 46.9846 146.473 47.2939C146.473 47.6033 146.537 47.8751 146.663 48.1095C146.79 48.3438 146.961 48.5243 147.176 48.6508C147.397 48.7774 147.638 48.8406 147.901 48.8406C148.172 48.8406 148.416 48.7797 148.632 48.6579C148.847 48.5313 149.016 48.3509 149.138 48.1165C149.265 47.8775 149.328 47.6009 149.328 47.2869Z" fill="#2C0C4D"/>
<path d="M151.154 44.0107V49.2133H150.662V44.0107H151.154Z" fill="#2C0C4D"/>
<path d="M151.974 47.2869C151.974 46.8932 152.051 46.5487 152.206 46.2534C152.365 45.9535 152.583 45.7238 152.859 45.5644C153.141 45.4004 153.457 45.3184 153.808 45.3184C154.174 45.3184 154.488 45.4027 154.751 45.5715C155.018 45.7402 155.21 45.9558 155.327 46.2183V45.3746H155.819V49.2133H155.327V48.3626C155.205 48.625 155.011 48.843 154.744 49.0164C154.481 49.1851 154.167 49.2695 153.801 49.2695C153.455 49.2695 153.141 49.1875 152.859 49.0234C152.583 48.8594 152.365 48.6274 152.206 48.3274C152.051 48.0275 151.974 47.6806 151.974 47.2869ZM155.327 47.2939C155.327 46.9846 155.264 46.7128 155.137 46.4784C155.011 46.2441 154.837 46.0636 154.617 45.9371C154.401 45.8105 154.162 45.7472 153.9 45.7472C153.628 45.7472 153.384 45.8082 153.169 45.93C152.953 46.0519 152.782 46.23 152.655 46.4643C152.534 46.694 152.473 46.9682 152.473 47.2869C152.473 47.6009 152.534 47.8775 152.655 48.1165C152.782 48.3509 152.953 48.5313 153.169 48.6579C153.384 48.7797 153.628 48.8406 153.9 48.8406C154.162 48.8406 154.401 48.7774 154.617 48.6508C154.837 48.5243 155.011 48.3438 155.137 48.1095C155.264 47.8751 155.327 47.6033 155.327 47.2939Z" fill="#2C0C4D"/>
<path d="M156.647 47.2939C156.647 46.8955 156.727 46.5487 156.886 46.2534C157.046 45.9535 157.266 45.7238 157.547 45.5644C157.829 45.4004 158.15 45.3184 158.51 45.3184C158.984 45.3184 159.373 45.4356 159.678 45.6699C159.987 45.9043 160.186 46.223 160.275 46.626H159.748C159.682 46.3495 159.539 46.1339 159.319 45.9792C159.103 45.8199 158.834 45.7402 158.51 45.7402C158.253 45.7402 158.021 45.7988 157.814 45.916C157.608 46.0331 157.444 46.2089 157.322 46.4433C157.205 46.6729 157.147 46.9565 157.147 47.2939C157.147 47.6314 157.205 47.9173 157.322 48.1517C157.444 48.386 157.608 48.5618 157.814 48.6789C158.021 48.7961 158.253 48.8547 158.51 48.8547C158.834 48.8547 159.103 48.7774 159.319 48.6227C159.539 48.4633 159.682 48.2431 159.748 47.9618H160.275C160.186 48.3555 159.987 48.6719 159.678 48.9109C159.368 49.15 158.979 49.2695 158.51 49.2695C158.15 49.2695 157.829 49.1898 157.547 49.0305C157.266 48.8664 157.046 48.6368 156.886 48.3415C156.727 48.0415 156.647 47.6923 156.647 47.2939Z" fill="#2C0C4D"/>
<path d="M164.587 47.0971C164.587 47.2658 164.582 47.3947 164.573 47.4838H161.388C161.402 47.7744 161.472 48.0228 161.599 48.229C161.725 48.4352 161.892 48.5922 162.098 48.7C162.304 48.8031 162.529 48.8547 162.773 48.8547C163.092 48.8547 163.359 48.7774 163.574 48.6227C163.795 48.468 163.94 48.2595 164.01 47.997H164.531C164.437 48.3719 164.235 48.6789 163.926 48.918C163.621 49.1523 163.237 49.2695 162.773 49.2695C162.412 49.2695 162.089 49.1898 161.803 49.0305C161.517 48.8664 161.292 48.6368 161.128 48.3415C160.968 48.0415 160.889 47.6923 160.889 47.2939C160.889 46.8955 160.968 46.5464 161.128 46.2464C161.287 45.9464 161.51 45.7168 161.796 45.5574C162.082 45.3981 162.407 45.3184 162.773 45.3184C163.139 45.3184 163.457 45.3981 163.729 45.5574C164.006 45.7168 164.217 45.9324 164.362 46.2042C164.512 46.4714 164.587 46.769 164.587 47.0971ZM164.088 47.083C164.092 46.7971 164.034 46.5534 163.912 46.3519C163.795 46.1503 163.633 45.998 163.427 45.8949C163.221 45.7918 162.996 45.7402 162.752 45.7402C162.386 45.7402 162.075 45.8574 161.817 46.0917C161.559 46.3261 161.416 46.6565 161.388 47.083H164.088Z" fill="#2C0C4D"/>
</svg>
